<svg width="20" height="20" viewBox="0 0 20 20" fill="none" xmlns="http://www.w3.org/2000/svg">
<path d="M18.1085 14.6349C18.5492 13.7389 18.7689 12.7503 18.7491 11.7519C18.7293 10.7535 18.4705 9.77446 17.9945 8.89665C17.5185 8.01885 16.8391 7.26787 16.0132 6.70662C15.1873 6.14537 14.2389 5.79018 13.2475 5.67081C12.9187 4.90434 12.4398 4.21143 11.8391 3.63291C11.2384 3.05438 10.5279 2.60194 9.74962 2.30224C8.97132 2.00254 8.14091 1.86164 7.30731 1.88785C6.47371 1.91406 5.65378 2.10684 4.89584 2.45484C4.1379 2.80284 3.45728 3.29901 2.89407 3.91413C2.33086 4.52925 1.89646 5.25087 1.61646 6.03647C1.33646 6.82208 1.21652 7.65578 1.26372 8.48845C1.31091 9.32113 1.52429 10.1359 1.89127 10.8849L1.29283 12.9802C1.23943 13.1676 1.23709 13.366 1.28605 13.5546C1.33502 13.7433 1.43351 13.9154 1.57133 14.0532C1.70915 14.1911 1.8813 14.2896 2.06996 14.3385C2.25862 14.3875 2.45694 14.3851 2.64439 14.3317L4.7397 13.7333C5.37198 14.0437 6.05209 14.2453 6.75142 14.3294C7.08478 15.1104 7.57379 15.8153 8.18862 16.401C8.80345 16.9868 9.53119 17.4411 10.3274 17.7362C11.1237 18.0314 11.9717 18.1612 12.8198 18.1177C13.6678 18.0742 14.4981 17.8583 15.26 17.4833L17.3553 18.0817C17.5428 18.1351 17.7411 18.1375 17.9298 18.0885C18.1184 18.0396 18.2906 17.9411 18.4284 17.8032C18.5662 17.6654 18.6647 17.4933 18.7137 17.3046C18.7626 17.116 18.7603 16.9176 18.7069 16.7302L18.1085 14.6349ZM4.80689 12.4396C4.7488 12.4396 4.69098 12.4474 4.63502 12.463L2.57173 13.0528L3.16158 10.9896C3.20578 10.8324 3.18671 10.6641 3.10845 10.5208C2.53378 9.46575 2.35853 8.23895 2.61483 7.06519C2.87112 5.89144 3.54179 4.84934 4.50395 4.12987C5.4661 3.41039 6.6553 3.06171 7.85363 3.14773C9.05195 3.23375 10.1792 3.74871 11.0287 4.59823C11.8782 5.44776 12.3932 6.57496 12.4792 7.77329C12.5652 8.97162 12.2165 10.1608 11.4971 11.123C10.7776 12.0851 9.73548 12.7558 8.56172 13.0121C7.38797 13.2684 6.16116 13.0931 5.10611 12.5185C5.01464 12.4673 4.91169 12.4402 4.80689 12.4396ZM16.8381 14.7396L17.428 16.8028L15.3647 16.213C15.2075 16.1688 15.0393 16.1879 14.896 16.2661C13.7438 16.8929 12.3917 17.0424 11.1305 16.6824C9.86931 16.3224 8.79983 15.4817 8.1522 14.3411C9.00803 14.252 9.83619 13.987 10.5847 13.5626C11.3333 13.1383 11.9861 12.5639 12.5021 11.8754C13.0182 11.1868 13.3864 10.3991 13.5836 9.56156C13.7809 8.72402 13.8029 7.85476 13.6483 7.00831C14.3972 7.1848 15.0953 7.53177 15.6882 8.02218C16.2811 8.5126 16.7528 9.13323 17.0666 9.83577C17.3804 10.5383 17.5279 11.3038 17.4975 12.0726C17.467 12.8415 17.2596 13.5929 16.8913 14.2685C16.8124 14.4124 16.7933 14.5816 16.8381 14.7396Z" fill="#004680"/>
</svg>
