<svg width="20" height="21" viewBox="0 0 20 21" fill="none" xmlns="http://www.w3.org/2000/svg">
<path d="M10.6542 15.1504C10.7416 15.2375 10.811 15.341 10.8583 15.4549C10.9056 15.5689 10.93 15.6911 10.93 15.8144C10.93 15.9378 10.9056 16.06 10.8583 16.174C10.811 16.2879 10.7416 16.3914 10.6542 16.4785L10.1902 16.9426C9.31081 17.8219 8.11815 18.316 6.87455 18.316C5.63095 18.316 4.43828 17.8219 3.55892 16.9426C2.67957 16.0632 2.18555 14.8706 2.18555 13.6269C2.18555 12.3833 2.67957 11.1907 3.55892 10.3113L5.4433 8.42773C6.28821 7.58073 7.425 7.08885 8.62082 7.05282C9.81664 7.0168 10.981 7.43937 11.8753 8.23398C11.9677 8.31606 12.0429 8.41552 12.0968 8.52668C12.1507 8.63785 12.1822 8.75854 12.1895 8.88186C12.1967 9.00519 12.1796 9.12874 12.1391 9.24546C12.0986 9.36217 12.0355 9.46977 11.9535 9.56211C11.8714 9.65444 11.7719 9.72971 11.6608 9.78361C11.5496 9.8375 11.4289 9.86898 11.3056 9.87623C11.1822 9.88349 11.0587 9.86638 10.942 9.82589C10.8253 9.78539 10.7177 9.72231 10.6253 9.64023C10.089 9.16392 9.39098 8.91053 8.67401 8.93188C7.95704 8.95323 7.27532 9.2477 6.7683 9.75508L4.88549 11.6363C4.35795 12.1639 4.06159 12.8793 4.06159 13.6254C4.06159 14.3714 4.35795 15.0869 4.88549 15.6145C5.41302 16.142 6.12851 16.4383 6.87455 16.4383C7.62059 16.4383 8.33608 16.142 8.86361 15.6145L9.32767 15.1504C9.41474 15.0632 9.51814 14.9941 9.63195 14.9469C9.74576 14.8997 9.86775 14.8754 9.99096 14.8754C10.1142 14.8754 10.2362 14.8997 10.35 14.9469C10.4638 14.9941 10.5672 15.0632 10.6542 15.1504ZM16.4417 4.05664C15.5617 3.17863 14.3693 2.68555 13.1261 2.68555C11.883 2.68555 10.6906 3.17863 9.81049 4.05664L9.34642 4.5207C9.1703 4.69682 9.07136 4.93569 9.07136 5.18476C9.07136 5.43383 9.1703 5.67271 9.34642 5.84883C9.52254 6.02495 9.76141 6.12389 10.0105 6.12389C10.2596 6.12389 10.4984 6.02495 10.6745 5.84883L11.1386 5.38476C11.6661 4.85723 12.3816 4.56087 13.1277 4.56087C13.8737 4.56087 14.5892 4.85723 15.1167 5.38476C15.6443 5.9123 15.9406 6.62778 15.9406 7.37383C15.9406 8.11987 15.6443 8.83536 15.1167 9.36289L13.2331 11.2473C12.7257 11.7544 12.0436 12.0485 11.3264 12.0692C10.6093 12.09 9.9113 11.8359 9.37533 11.359C9.28299 11.2769 9.1754 11.2138 9.05868 11.1733C8.94196 11.1328 8.81841 11.1157 8.69509 11.123C8.57176 11.1302 8.45107 11.1617 8.3399 11.2156C8.22874 11.2695 8.12928 11.3448 8.0472 11.4371C7.96513 11.5294 7.90204 11.637 7.86155 11.7538C7.82106 11.8705 7.80395 11.994 7.8112 12.1173C7.81846 12.2407 7.84993 12.3614 7.90383 12.4725C7.95773 12.5837 8.03299 12.6832 8.12533 12.7652C9.01906 13.5597 10.1826 13.9825 11.3779 13.9472C12.5731 13.9119 13.7097 13.4212 14.555 12.5754L16.4394 10.6918C17.3184 9.81193 17.8124 8.61921 17.8128 7.37548C17.8133 6.13176 17.3201 4.93868 16.4417 4.0582V4.05664Z" fill="#004680"/>
</svg>
