<svg width="25" height="25" viewBox="0 0 25 25" fill="none" xmlns="http://www.w3.org/2000/svg">
<g id="More_btn">
<path id="Vector" d="M12.5 11.4583C12.2238 11.4583 11.9588 11.5681 11.7635 11.7634C11.5681 11.9588 11.4584 12.2237 11.4584 12.5C11.4584 12.7762 11.5681 13.0412 11.7635 13.2365C11.9588 13.4319 12.2238 13.5416 12.5 13.5416C12.7763 13.5416 13.0413 13.4319 13.2366 13.2365C13.432 13.0412 13.5417 12.7762 13.5417 12.5C13.5417 12.2237 13.432 11.9588 13.2366 11.7634C13.0413 11.5681 12.7763 11.4583 12.5 11.4583Z" stroke="white" stroke-width="2" stroke-linecap="round" stroke-linejoin="round"/>
<path id="Vector_2" d="M18.7917 11.4583C18.5154 11.4583 18.2504 11.5681 18.0551 11.7634C17.8597 11.9588 17.75 12.2237 17.75 12.5C17.75 12.7762 17.8597 13.0412 18.0551 13.2365C18.2504 13.4319 18.5154 13.5416 18.7917 13.5416C19.0679 13.5416 19.3329 13.4319 19.5282 13.2365C19.7236 13.0412 19.8333 12.7762 19.8333 12.5C19.8333 12.2237 19.7236 11.9588 19.5282 11.7634C19.3329 11.5681 19.0679 11.4583 18.7917 11.4583Z" stroke="white" stroke-width="2" stroke-linecap="round" stroke-linejoin="round"/>
<path id="Vector_3" d="M6.20829 11.4583C5.93203 11.4583 5.66707 11.5681 5.47172 11.7634C5.27637 11.9588 5.16663 12.2237 5.16663 12.5C5.16663 12.7762 5.27637 13.0412 5.47172 13.2365C5.66707 13.4319 5.93203 13.5416 6.20829 13.5416C6.48456 13.5416 6.74951 13.4319 6.94486 13.2365C7.14021 13.0412 7.24996 12.7762 7.24996 12.5C7.24996 12.2237 7.14021 11.9588 6.94486 11.7634C6.74951 11.5681 6.48456 11.4583 6.20829 11.4583Z" stroke="white" stroke-width="2" stroke-linecap="round" stroke-linejoin="round"/>
</g>
</svg>
