<svg width="18" height="18" viewBox="0 0 18 18" fill="none" xmlns="http://www.w3.org/2000/svg">
<g clip-path="url(#clip0_1_494)">
<path d="M0.0234375 8.62622C0.0234375 4.60544 0.0234346 2.59505 1.2787 1.33272C2.55765 0.0937542 4.59449 0.09375 8.64449 0.09375H9.35501C13.4287 0.09375 15.4655 0.0937542 16.7208 1.33272C17.9761 2.57168 17.9761 4.60544 17.9761 8.62622V9.32752C17.9761 13.3483 17.9761 15.3587 16.7208 16.621C15.4655 17.86 13.405 17.86 9.35501 17.86H8.64449C4.5708 17.86 2.53396 17.86 1.2787 16.621C0.0234346 15.3821 0.0234375 13.3717 0.0234375 9.32752V8.62622Z" fill="#EE761C"/>
<path d="M8.00566 4.79225C8.26619 4.53511 8.62145 4.37147 9.02409 4.37147C9.42672 4.37147 9.78198 4.53511 10.0425 4.79225C10.303 5.04939 10.4688 5.40004 10.4688 5.79744C10.4688 6.19485 10.303 6.5455 10.0425 6.80264C9.78198 7.05978 9.42672 7.22342 9.02409 7.22342C8.62145 7.22342 8.26619 7.05978 8.00566 6.80264C7.74513 6.5455 7.57935 6.19485 7.57935 5.79744C7.57935 5.40004 7.74513 5.04939 8.00566 4.79225ZM9.02409 8.95329C9.9004 8.95329 10.7057 8.60264 11.2741 8.0416C11.8425 7.48056 12.1978 6.68576 12.1978 5.82082C12.1978 4.95589 11.8425 4.16108 11.2741 3.60004C10.7057 3.039 9.9004 2.68835 9.02409 2.68835C8.14777 2.68835 7.34251 3.039 6.77409 3.60004C6.20566 4.16108 5.8504 4.95589 5.8504 5.82082C5.8504 6.68576 6.20566 7.48056 6.77409 8.0416C7.34251 8.60264 8.14777 8.95329 9.02409 8.95329Z" fill="white"/>
<path d="M13.3109 10.2158L12.3872 8.95341C12.3399 8.88328 12.2214 8.85991 12.1741 8.93004C11.2978 9.67809 10.2083 10.1456 9.04777 10.1456C7.88724 10.1456 6.79777 9.65472 5.92145 8.93004C5.8504 8.88329 5.75566 8.88328 5.70829 8.95341L4.78461 10.2158C4.73724 10.2859 4.76092 10.356 4.80829 10.4028C5.58987 11.0339 6.51356 11.4547 7.46092 11.6885L5.49514 15.1248C5.44777 15.2184 5.51882 15.3352 5.61356 15.3352H7.53197C7.60303 15.3352 7.6504 15.3119 7.67408 15.2417L9.04777 12.2028L10.4214 15.2417C10.4451 15.2885 10.4925 15.3352 10.5636 15.3352H12.482C12.6004 15.3352 12.6715 15.2184 12.6004 15.1248L10.6346 11.6885C11.582 11.4781 12.5057 11.0573 13.2872 10.4028C13.3346 10.356 13.3583 10.2859 13.3109 10.2158Z" fill="white"/>
</g>
<defs>
<clipPath id="clip0_1_494">
<rect width="18" height="18" fill="white"/>
</clipPath>
</defs>
</svg>
