<svg width="20" height="21" viewBox="0 0 20 21" fill="none" xmlns="http://www.w3.org/2000/svg">
<g id="icon: Search">
<path id="Vector" d="M18.8355 18.1111L13.0644 12.34C13.96 11.1822 14.4444 9.76667 14.4444 8.27778C14.4444 6.49556 13.7489 4.82445 12.4911 3.56445C11.2333 2.30445 9.55775 1.61111 7.77775 1.61111C5.99775 1.61111 4.3222 2.30667 3.06442 3.56445C1.80442 4.82223 1.11108 6.49556 1.11108 8.27778C1.11108 10.0578 1.80664 11.7333 3.06442 12.9911C4.3222 14.2511 5.99553 14.9444 7.77775 14.9444C9.26664 14.9444 10.68 14.46 11.8378 13.5667L17.6089 19.3356C17.6258 19.3525 17.6459 19.3659 17.668 19.3751C17.6901 19.3843 17.7138 19.389 17.7378 19.389C17.7617 19.389 17.7854 19.3843 17.8075 19.3751C17.8296 19.3659 17.8497 19.3525 17.8666 19.3356L18.8355 18.3689C18.8525 18.352 18.8659 18.3319 18.8751 18.3098C18.8842 18.2876 18.8889 18.2639 18.8889 18.24C18.8889 18.2161 18.8842 18.1924 18.8751 18.1702C18.8659 18.1481 18.8525 18.128 18.8355 18.1111ZM11.2978 11.7978C10.3555 12.7378 9.10664 13.2556 7.77775 13.2556C6.44886 13.2556 5.19997 12.7378 4.25775 11.7978C3.31775 10.8556 2.79997 9.60667 2.79997 8.27778C2.79997 6.94889 3.31775 5.69778 4.25775 4.75778C5.19997 3.81778 6.44886 3.3 7.77775 3.3C9.10664 3.3 10.3578 3.81556 11.2978 4.75778C12.2378 5.7 12.7555 6.94889 12.7555 8.27778C12.7555 9.60667 12.2378 10.8578 11.2978 11.7978Z" fill="black"/>
</g>
</svg>
