<svg width="18" height="18" viewBox="0 0 18 18" fill="none" xmlns="http://www.w3.org/2000/svg">
<path fill-rule="evenodd" clip-rule="evenodd" d="M13.8615 14.8426V14.8411L13.875 14.8089L16.1242 3.46888V3.43288C16.1242 3.15013 16.0192 2.90338 15.7927 2.75563C15.594 2.62588 15.3652 2.61688 15.2047 2.62888C15.0553 2.6424 14.9079 2.67258 14.7652 2.71888C14.7044 2.73847 14.6443 2.76049 14.5852 2.78488L14.5755 2.78863L2.0355 7.70789L2.03175 7.70938C1.99361 7.72238 1.9563 7.73766 1.92 7.75514C1.83081 7.7952 1.74525 7.84288 1.66425 7.89763C1.503 8.00863 1.19625 8.26963 1.248 8.68363C1.29075 9.02713 1.527 9.24463 1.68675 9.35788C1.78104 9.42396 1.88242 9.4793 1.989 9.52288L2.013 9.53338L2.0205 9.53563L2.02575 9.53788L4.22025 10.2766C4.21275 10.4139 4.22625 10.5541 4.263 10.6929L5.36175 14.8621C5.42177 15.0894 5.55147 15.2922 5.73264 15.4419C5.9138 15.5917 6.13733 15.681 6.37183 15.6972C6.60632 15.7134 6.84001 15.6557 7.04007 15.5323C7.24013 15.4089 7.39651 15.226 7.48725 15.0091L9.20325 13.1746L12.15 15.4336L12.192 15.4516C12.4597 15.5686 12.7095 15.6054 12.9382 15.5746C13.1384 15.547 13.3271 15.4653 13.4842 15.3384C13.6426 15.2105 13.769 15.0474 13.8532 14.8621L13.8585 14.8494L13.8607 14.8449L13.8615 14.8426ZM5.3505 10.4064C5.33833 10.3601 5.34122 10.3112 5.35875 10.2667C5.37629 10.2222 5.40755 10.1844 5.448 10.1589L12.8887 5.43388C12.8887 5.43388 13.3267 5.16763 13.311 5.43388C13.311 5.43388 13.389 5.48038 13.1542 5.69863C12.9322 5.90638 7.851 10.8121 7.33649 11.3086C7.30789 11.3364 7.28785 11.3718 7.27875 11.4106L6.44925 14.5756L5.3505 10.4056V10.4064Z" fill="#337AB7"/>
</svg>
