<svg width="20" height="20" viewBox="0 0 20 20" fill="none" xmlns="http://www.w3.org/2000/svg">
<path d="M19.192 6.06754L16.8561 8.40348C16.3842 13.8738 11.7709 18.1254 6.24986 18.1254C5.11548 18.1254 4.18032 17.9457 3.47017 17.591C2.89751 17.3043 2.66314 16.9972 2.60454 16.9097C2.5523 16.8314 2.51843 16.7422 2.50548 16.6489C2.49253 16.5557 2.50082 16.4607 2.52975 16.371C2.55867 16.2814 2.60747 16.1995 2.67251 16.1314C2.73754 16.0633 2.81713 16.0107 2.90532 15.9777C2.92564 15.9699 4.79907 15.2504 5.98892 13.8808C5.32906 13.3383 4.75304 12.7012 4.27954 11.9902C3.31079 10.5519 2.22642 8.05348 2.56079 4.31988C2.57139 4.20125 2.61567 4.08811 2.68841 3.9938C2.76116 3.89948 2.85933 3.82791 2.97139 3.78753C3.08344 3.74714 3.2047 3.73961 3.32088 3.76583C3.43707 3.79205 3.54335 3.85092 3.6272 3.93551C3.65454 3.96285 6.2272 6.52145 9.37251 7.35113V6.87535C9.37132 6.37644 9.46996 5.88234 9.66263 5.42213C9.8553 4.96192 10.1381 4.54491 10.4944 4.19567C10.8404 3.85014 11.2521 3.57742 11.7052 3.39359C12.1584 3.20976 12.6437 3.11856 13.1327 3.12535C13.7886 3.13182 14.4316 3.30789 14.9994 3.63645C15.5671 3.96501 16.0401 4.43487 16.3725 5.00035H18.7499C18.8735 5.00026 18.9945 5.03686 19.0973 5.10553C19.2002 5.1742 19.2804 5.27185 19.3277 5.38611C19.3751 5.50037 19.3875 5.62612 19.3633 5.74742C19.3392 5.86872 19.2796 5.98013 19.192 6.06754Z" fill="#1DA1F2"/>
</svg>
