<svg width="18" height="18" viewBox="0 0 18 18" fill="none" xmlns="http://www.w3.org/2000/svg">
<path fill-rule="evenodd" clip-rule="evenodd" d="M1.2653 1.2653C0 2.5306 0 4.56707 0 8.64L0 9.36C0 13.4329 0 15.4694 1.2653 16.7347C2.5306 18 4.56706 18 8.63998 18H8.64H9.36H9.36002C13.4329 18 15.4694 18 16.7347 16.7347C18 15.4694 18 13.4329 18 9.36002V9.36V8.64V8.63998C18 4.56706 18 2.5306 16.7347 1.2653C15.4694 0 13.4329 0 9.36 0L8.64 0C4.56707 0 2.5306 0 1.2653 1.2653ZM3.03725 5.47559C3.13475 10.1556 5.47473 12.9681 9.57723 12.9681H9.80977V10.2906C11.3173 10.4406 12.4572 11.5431 12.9147 12.9681H15.0448C14.4598 10.8381 12.9222 9.66057 11.9622 9.21057C12.9222 8.65557 14.2722 7.30559 14.5947 5.47559H12.6596C12.2396 6.96059 10.9948 8.31057 9.80977 8.43807L9.80977 5.47559H7.87471V10.6656C6.67471 10.3656 5.15974 8.91059 5.09224 5.47559L3.03725 5.47559Z" fill="#0077FF"/>
</svg>
