<svg width="16" height="16" viewBox="0 0 16 16" fill="none" xmlns="http://www.w3.org/2000/svg">
<path fill-rule="evenodd" clip-rule="evenodd" d="M1.12471 1.12471C0 2.24942 0 4.05961 0 7.68L0 8.32C0 11.9404 0 13.7506 1.12471 14.8753C2.24942 16 4.05961 16 7.68 16H8.32C11.9404 16 13.7506 16 14.8753 14.8753C16 13.7506 16 11.9404 16 8.32V7.68C16 4.05961 16 2.24942 14.8753 1.12471C13.7506 0 11.9404 0 8.32 0L7.68 0C4.05961 0 2.24942 0 1.12471 1.12471ZM2.7002 4.86719C2.78686 9.02719 4.86684 11.5272 8.51351 11.5272H8.72021V9.14718C10.0602 9.28051 11.0735 10.2605 11.4801 11.5272H13.3735C12.8535 9.63385 11.4868 8.58717 10.6335 8.18717C11.4868 7.69384 12.6868 6.49385 12.9735 4.86719H11.2534C10.8801 6.18719 9.77355 7.38718 8.72021 7.50051L8.72021 4.86719H7.00016V9.48051C5.9335 9.21384 4.58686 7.92052 4.52686 4.86719L2.7002 4.86719Z" fill="#337AB7"/>
</svg>
