<svg width="56" height="43" viewBox="0 0 56 43" fill="none" xmlns="http://www.w3.org/2000/svg">
<g id="Group">
<path id="Vector" d="M11.3862 31.9613H10.8796V33.2622H11.3862C11.6806 33.2622 11.8277 33.0819 11.8277 32.6096C11.8277 32.1974 11.6806 31.9613 11.3862 31.9613ZM28.5606 32.1459H29.2577L28.9416 30.188L28.5606 32.1459ZM21.6424 30.2224C21.2657 30.2224 21.0925 30.48 21.0925 30.9265V32.6439C21.0925 33.0819 21.2657 33.318 21.6424 33.318C21.9844 33.318 22.1749 33.0862 22.1749 32.6439V30.9394C22.1749 30.4886 21.9844 30.2224 21.6424 30.2224ZM11.7888 30.7891C11.7888 30.4371 11.6676 30.2567 11.3082 30.2567H10.8796V31.3602H11.2952C11.6416 31.3644 11.7888 31.1541 11.7888 30.7891ZM36.3621 30.2224C35.9855 30.2224 35.8123 30.48 35.8123 30.9265V32.6439C35.8123 33.0819 35.9855 33.318 36.3621 33.318C36.6998 33.318 36.8903 33.0862 36.8903 32.6439V30.9394C36.8903 30.4886 36.6998 30.2224 36.3621 30.2224ZM43.6484 24.2887C43.6484 23.7133 43.367 23.5588 42.9254 23.5588H42.2847V25.0615H42.947C43.302 25.0615 43.6484 24.8898 43.6484 24.2887ZM52.8915 0H3.10846C1.38971 0 0 1.39967 0 3.13427V39.8657C0 41.596 1.38971 43 3.10846 43H52.8915C54.606 43 56 41.596 56 39.8657V3.13427C56 1.39967 54.606 0 52.8915 0ZM41.2932 22.7816H43.354C44.1549 22.7816 44.6615 23.387 44.6615 24.1427C44.6615 24.9241 44.3368 25.3234 43.8735 25.3878C44.445 25.5037 44.5879 25.9503 44.5879 26.3281V26.9979C44.5879 27.4788 44.5965 27.8781 44.826 27.8781V28.0369H43.8346C43.6397 27.8781 43.5964 27.5131 43.5964 27.1782V26.5728C43.5964 26.1735 43.4579 25.8086 43.0033 25.8086H42.2803V28.0369H41.2889V22.7816H41.2932ZM39.7823 28.0369H40.6828V27.1052H39.7823V28.0369ZM36.0114 26.2337H36.9552V26.4397C36.9552 27.1739 37.3016 27.3629 37.6782 27.3629C38.0506 27.3629 38.2627 27.101 38.2627 26.7747C38.2627 26.4312 38.0895 26.2293 37.7215 25.9889L36.8427 25.405C36.3232 25.0615 36.0634 24.6192 36.0634 24.0482C36.0634 23.1809 36.6998 22.6872 37.6003 22.6872C38.5917 22.6872 39.1459 23.2282 39.1459 24.2844V24.4432H38.2021V24.3831C38.2021 23.7434 37.9726 23.4901 37.5787 23.4901C37.2973 23.4901 37.0505 23.6447 37.0505 23.9323C37.0505 24.2458 37.1717 24.3917 37.3838 24.5291L38.3969 25.2075C38.9467 25.5767 39.2844 25.8987 39.2844 26.6845C39.2844 27.6076 38.7216 28.1615 37.6826 28.1615C36.5743 28.1615 36.0158 27.5174 36.0158 26.4397V26.2337H36.0114ZM27.5692 28.0369H28.4697V27.1052H27.5692V28.0369ZM12.6287 8.07187H13.5075C13.9967 8.07187 14.1093 8.35953 13.7673 8.70301L12.0745 10.4119C11.7282 10.7597 11.7282 11.3264 12.0745 11.6742L13.7673 13.383C14.1136 13.7265 13.9967 14.0141 13.5075 14.0141H12.6287C12.1395 14.0141 11.4598 13.7308 11.1177 13.383L9.42495 11.6742C9.07861 11.3264 9.07861 10.7597 9.42495 10.4119L11.1177 8.70301C11.4554 8.35953 12.1395 8.07187 12.6287 8.07187ZM7.57634 13.383L5.88356 11.6742C5.53721 11.3264 5.53721 10.7597 5.88356 10.4119L7.57634 8.70301C7.91836 8.35523 8.60239 8.07187 9.08728 8.07187H9.97046C10.4553 8.07187 10.5723 8.35953 10.2302 8.70301L8.53745 10.4119C8.1911 10.7597 8.1911 11.3264 8.53745 11.6742L10.2302 13.383C10.5766 13.7265 10.4597 14.0141 9.97046 14.0141H9.08728C8.60239 14.0141 7.92269 13.7308 7.57634 13.383ZM9.42062 15.2422C9.07427 14.8944 9.19118 14.611 9.6804 14.611H14.9795C15.4687 14.611 15.5856 14.3276 15.2393 13.9798L12.9577 11.6785C12.6114 11.3307 12.6114 10.7639 12.9577 10.4161L14.6548 8.70731C14.9968 8.35953 15.6809 8.07617 16.1657 8.07617H17.0489C17.5338 8.07617 17.655 8.36382 17.3087 8.70731L15.6159 10.4161C15.2696 10.7639 15.2696 11.3307 15.6159 11.6785L19.0404 15.1305C19.7288 15.8261 19.495 16.3928 18.5209 16.3928H11.4511C10.9662 16.3928 10.2822 16.1051 9.94015 15.7617L9.42062 15.2422ZM11.6806 33.859H10.0874V29.6556H11.5507C12.2823 29.6556 12.5767 30.1451 12.5767 30.6775C12.5767 31.0811 12.3646 31.5276 12.0182 31.6006C12.4295 31.7681 12.6373 32.0643 12.6373 32.6139C12.6373 33.3438 12.3256 33.859 11.6806 33.859ZM12.7196 24.3745L12.1784 28.0369H10.7844L9.94448 22.7816H10.9402L11.5333 27.1696H11.542L12.1914 22.7816H13.2434L13.8928 27.1696H13.9015L14.4903 22.7816H15.4904L14.6505 28.0369H13.2564L12.7239 24.3745H12.7196ZM15.6722 31.0252H14.8799V30.9351C14.8799 30.407 14.7457 30.2224 14.4124 30.2224C14.079 30.2224 13.9361 30.4027 13.9361 30.9351V32.5967C13.9361 33.142 14.0703 33.3223 14.408 33.3223C14.7241 33.3223 14.8799 33.1334 14.8799 32.5967V32.3691H15.6722V32.5495C15.6722 33.3137 15.4038 33.9664 14.4124 33.9664C13.3733 33.9664 13.1265 33.3095 13.1265 32.5624V31.0295C13.1265 30.0463 13.5638 29.5869 14.4253 29.5869C15.2349 29.5869 15.6722 30.0463 15.6722 30.8192V31.0252ZM18.43 30.2954H16.9927V31.2743H18.3044V31.914H16.9927V33.2193H18.43V33.859H16.2004V29.6556H18.43V30.2954ZM18.6984 24.3745H18.6898L18.1486 28.0369H16.7545L15.9146 22.7816H16.9104L17.5035 27.1696H17.5079L18.1573 22.7816H19.2093L19.8587 27.1696H19.863L20.4561 22.7816H21.4519L20.6163 28.0369H19.2223L18.6984 24.3745ZM22.9801 32.5452C22.9801 33.6143 22.4433 33.9621 21.6424 33.9621C20.8501 33.9621 20.2829 33.6057 20.2829 32.5452V31.021C20.2829 29.9605 20.8501 29.5826 21.6424 29.5826C22.4433 29.5826 22.9801 29.9476 22.9801 31.021V32.5452ZM24.6599 24.3745L24.1187 28.0369H22.7247L21.8891 22.7816H22.8849L23.478 27.1696H23.4823L24.1317 22.7816H25.1881L25.8375 27.1696H25.8461L26.4393 22.7816H27.435L26.5995 28.0369H25.2054L24.6729 24.3745H24.6599ZM26.5042 33.859H25.7119V30.2954H24.7292V29.6556H27.487V30.2954H26.5042V33.859ZM29.5564 33.859L29.3573 32.7642H28.4611L28.2143 33.859H27.3614L28.4178 29.6556H29.4785L30.4049 33.859H29.5564ZM30.5695 28.0369H29.578V23.5845H28.3528V22.7816H31.7947V23.5845H30.5695V28.0369ZM34.4659 33.859H33.7255V30.0506H33.7212L32.929 33.859H32.3618L31.5695 30.0549H31.5652V33.859H30.8249V29.6556H32.0891L32.6432 32.3863L33.1974 29.6556H34.4615V33.859H34.4659ZM33.7299 25.9417L33.3402 26.4612V28.0412H32.3488V22.7859H33.3402V25.0658L34.5395 22.7859H35.6564L34.336 25.0658L35.6997 28.0412H34.5957L33.7299 25.9417ZM37.6999 32.5452C37.6999 33.6143 37.163 33.9621 36.3621 33.9621C35.5699 33.9621 35.0027 33.6057 35.0027 32.5452V31.021C35.0027 29.9605 35.5699 29.5826 36.3621 29.5826C37.163 29.5826 37.6999 29.9476 37.6999 31.021V32.5452ZM41.6353 33.859L40.9382 32.1802L40.6265 32.5924V33.8547H39.8342V32.5924L39.5225 32.1802L38.8255 33.859H37.9423L39.0333 31.4761L37.977 29.6513H38.8731L39.8299 31.4761V29.6513H40.6222V31.4761L41.579 29.6513H42.4751L41.4188 31.4761L42.5098 33.859H41.6353ZM45.5879 33.859H44.7957V31.914H43.7523V33.859H42.96V29.6556H43.7523V31.2743H44.7957V29.6556H45.5879V33.859ZM48.389 30.2954H46.9517V31.2743H48.2591V31.914H46.9517V33.2193H48.389V33.859H46.1594V29.6556H48.389V30.2954ZM48.6098 26.6286C48.6098 27.5732 48.1163 28.1357 46.9647 28.1357C45.8174 28.1357 45.3109 27.5904 45.3109 26.6286V22.7859H46.298V26.4827C46.298 27.0537 46.4928 27.3328 46.9647 27.3328C47.4539 27.3328 47.6184 27.0709 47.6184 26.4827V22.7859H48.6098V26.6286V26.6286Z" fill="#05498F"/>
<g id="Clip path group">
<mask id="mask0_305_82" style="mask-type:luminance" maskUnits="userSpaceOnUse" x="0" y="0" width="56" height="43">
<g id="SVGID_00000116228389982649004770000015959385549816519599_">
<path id="Vector_2" d="M11.3862 31.9613H10.8796V33.2622H11.3862C11.6806 33.2622 11.8277 33.0819 11.8277 32.6096C11.8277 32.1974 11.6806 31.9613 11.3862 31.9613ZM28.5606 32.1459H29.2577L28.9416 30.188L28.5606 32.1459ZM21.6424 30.2224C21.2657 30.2224 21.0925 30.48 21.0925 30.9265V32.6439C21.0925 33.0819 21.2657 33.318 21.6424 33.318C21.9844 33.318 22.1749 33.0862 22.1749 32.6439V30.9394C22.1749 30.4886 21.9844 30.2224 21.6424 30.2224ZM11.7888 30.7891C11.7888 30.4371 11.6676 30.2567 11.3082 30.2567H10.8796V31.3602H11.2952C11.6416 31.3644 11.7888 31.1541 11.7888 30.7891ZM36.3621 30.2224C35.9855 30.2224 35.8123 30.48 35.8123 30.9265V32.6439C35.8123 33.0819 35.9855 33.318 36.3621 33.318C36.6998 33.318 36.8903 33.0862 36.8903 32.6439V30.9394C36.8903 30.4886 36.6998 30.2224 36.3621 30.2224ZM43.6484 24.2887C43.6484 23.7133 43.367 23.5588 42.9254 23.5588H42.2847V25.0615H42.947C43.302 25.0615 43.6484 24.8898 43.6484 24.2887ZM52.8915 0H3.10846C1.38971 0 0 1.39967 0 3.13427V39.8657C0 41.596 1.38971 43 3.10846 43H52.8915C54.606 43 56 41.596 56 39.8657V3.13427C56 1.39967 54.606 0 52.8915 0ZM41.2932 22.7816H43.354C44.1549 22.7816 44.6615 23.387 44.6615 24.1427C44.6615 24.9241 44.3368 25.3234 43.8735 25.3878C44.445 25.5037 44.5879 25.9503 44.5879 26.3281V26.9979C44.5879 27.4788 44.5965 27.8781 44.826 27.8781V28.0369H43.8346C43.6397 27.8781 43.5964 27.5131 43.5964 27.1782V26.5728C43.5964 26.1735 43.4579 25.8086 43.0033 25.8086H42.2803V28.0369H41.2889V22.7816H41.2932ZM39.7823 28.0369H40.6828V27.1052H39.7823V28.0369ZM36.0114 26.2337H36.9552V26.4397C36.9552 27.1739 37.3016 27.3629 37.6782 27.3629C38.0506 27.3629 38.2627 27.101 38.2627 26.7747C38.2627 26.4312 38.0895 26.2293 37.7215 25.9889L36.8427 25.405C36.3232 25.0615 36.0634 24.6192 36.0634 24.0482C36.0634 23.1809 36.6998 22.6872 37.6003 22.6872C38.5917 22.6872 39.1459 23.2282 39.1459 24.2844V24.4432H38.2021V24.3831C38.2021 23.7434 37.9726 23.4901 37.5787 23.4901C37.2973 23.4901 37.0505 23.6447 37.0505 23.9323C37.0505 24.2458 37.1717 24.3917 37.3838 24.5291L38.3969 25.2075C38.9467 25.5767 39.2844 25.8987 39.2844 26.6845C39.2844 27.6076 38.7216 28.1615 37.6826 28.1615C36.5743 28.1615 36.0158 27.5174 36.0158 26.4397V26.2337H36.0114ZM27.5692 28.0369H28.4697V27.1052H27.5692V28.0369ZM12.6287 8.07187H13.5075C13.9967 8.07187 14.1093 8.35953 13.7673 8.70301L12.0745 10.4119C11.7282 10.7597 11.7282 11.3264 12.0745 11.6742L13.7673 13.383C14.1136 13.7265 13.9967 14.0141 13.5075 14.0141H12.6287C12.1395 14.0141 11.4598 13.7308 11.1177 13.383L9.42495 11.6742C9.07861 11.3264 9.07861 10.7597 9.42495 10.4119L11.1177 8.70301C11.4554 8.35953 12.1395 8.07187 12.6287 8.07187ZM7.57634 13.383L5.88356 11.6742C5.53721 11.3264 5.53721 10.7597 5.88356 10.4119L7.57634 8.70301C7.91836 8.35523 8.60239 8.07187 9.08728 8.07187H9.97046C10.4553 8.07187 10.5723 8.35953 10.2302 8.70301L8.53745 10.4119C8.1911 10.7597 8.1911 11.3264 8.53745 11.6742L10.2302 13.383C10.5766 13.7265 10.4597 14.0141 9.97046 14.0141H9.08728C8.60239 14.0141 7.92269 13.7308 7.57634 13.383ZM9.42062 15.2422C9.07427 14.8944 9.19118 14.611 9.6804 14.611H14.9795C15.4687 14.611 15.5856 14.3276 15.2393 13.9798L12.9577 11.6785C12.6114 11.3307 12.6114 10.7639 12.9577 10.4161L14.6548 8.70731C14.9968 8.35953 15.6809 8.07617 16.1657 8.07617H17.0489C17.5338 8.07617 17.655 8.36382 17.3087 8.70731L15.6159 10.4161C15.2696 10.7639 15.2696 11.3307 15.6159 11.6785L19.0404 15.1305C19.7288 15.8261 19.495 16.3928 18.5209 16.3928H11.4511C10.9662 16.3928 10.2822 16.1051 9.94015 15.7617L9.42062 15.2422ZM11.6806 33.859H10.0874V29.6556H11.5507C12.2823 29.6556 12.5767 30.1451 12.5767 30.6775C12.5767 31.0811 12.3646 31.5276 12.0182 31.6006C12.4295 31.7681 12.6373 32.0643 12.6373 32.6139C12.6373 33.3438 12.3256 33.859 11.6806 33.859ZM12.7196 24.3745L12.1784 28.0369H10.7844L9.94448 22.7816H10.9402L11.5333 27.1696H11.542L12.1914 22.7816H13.2434L13.8928 27.1696H13.9015L14.4903 22.7816H15.4904L14.6505 28.0369H13.2564L12.7239 24.3745H12.7196ZM15.6722 31.0252H14.8799V30.9351C14.8799 30.407 14.7457 30.2224 14.4124 30.2224C14.079 30.2224 13.9361 30.4027 13.9361 30.9351V32.5967C13.9361 33.142 14.0703 33.3223 14.408 33.3223C14.7241 33.3223 14.8799 33.1334 14.8799 32.5967V32.3691H15.6722V32.5495C15.6722 33.3137 15.4038 33.9664 14.4124 33.9664C13.3733 33.9664 13.1265 33.3095 13.1265 32.5624V31.0295C13.1265 30.0463 13.5638 29.5869 14.4253 29.5869C15.2349 29.5869 15.6722 30.0463 15.6722 30.8192V31.0252ZM18.43 30.2954H16.9927V31.2743H18.3044V31.914H16.9927V33.2193H18.43V33.859H16.2004V29.6556H18.43V30.2954ZM18.6984 24.3745H18.6898L18.1486 28.0369H16.7545L15.9146 22.7816H16.9104L17.5035 27.1696H17.5079L18.1573 22.7816H19.2093L19.8587 27.1696H19.863L20.4561 22.7816H21.4519L20.6163 28.0369H19.2223L18.6984 24.3745ZM22.9801 32.5452C22.9801 33.6143 22.4433 33.9621 21.6424 33.9621C20.8501 33.9621 20.2829 33.6057 20.2829 32.5452V31.021C20.2829 29.9605 20.8501 29.5826 21.6424 29.5826C22.4433 29.5826 22.9801 29.9476 22.9801 31.021V32.5452ZM24.6599 24.3745L24.1187 28.0369H22.7247L21.8891 22.7816H22.8849L23.478 27.1696H23.4823L24.1317 22.7816H25.1881L25.8375 27.1696H25.8461L26.4393 22.7816H27.435L26.5995 28.0369H25.2054L24.6729 24.3745H24.6599ZM26.5042 33.859H25.7119V30.2954H24.7292V29.6556H27.487V30.2954H26.5042V33.859ZM29.5564 33.859L29.3573 32.7642H28.4611L28.2143 33.859H27.3614L28.4178 29.6556H29.4785L30.4049 33.859H29.5564ZM30.5695 28.0369H29.578V23.5845H28.3528V22.7816H31.7947V23.5845H30.5695V28.0369ZM34.4659 33.859H33.7255V30.0506H33.7212L32.929 33.859H32.3618L31.5695 30.0549H31.5652V33.859H30.8249V29.6556H32.0891L32.6432 32.3863L33.1974 29.6556H34.4615V33.859H34.4659ZM33.7299 25.9417L33.3402 26.4612V28.0412H32.3488V22.7859H33.3402V25.0658L34.5395 22.7859H35.6564L34.336 25.0658L35.6997 28.0412H34.5957L33.7299 25.9417ZM37.6999 32.5452C37.6999 33.6143 37.163 33.9621 36.3621 33.9621C35.5699 33.9621 35.0027 33.6057 35.0027 32.5452V31.021C35.0027 29.9605 35.5699 29.5826 36.3621 29.5826C37.163 29.5826 37.6999 29.9476 37.6999 31.021V32.5452ZM41.6353 33.859L40.9382 32.1802L40.6265 32.5924V33.8547H39.8342V32.5924L39.5225 32.1802L38.8255 33.859H37.9423L39.0333 31.4761L37.977 29.6513H38.8731L39.8299 31.4761V29.6513H40.6222V31.4761L41.579 29.6513H42.4751L41.4188 31.4761L42.5098 33.859H41.6353ZM45.5879 33.859H44.7957V31.914H43.7523V33.859H42.96V29.6556H43.7523V31.2743H44.7957V29.6556H45.5879V33.859ZM48.389 30.2954H46.9517V31.2743H48.2591V31.914H46.9517V33.2193H48.389V33.859H46.1594V29.6556H48.389V30.2954ZM48.6098 26.6286C48.6098 27.5732 48.1163 28.1357 46.9647 28.1357C45.8174 28.1357 45.3109 27.5904 45.3109 26.6286V22.7859H46.298V26.4827C46.298 27.0537 46.4928 27.3328 46.9647 27.3328C47.4539 27.3328 47.6184 27.0709 47.6184 26.4827V22.7859H48.6098V26.6286V26.6286Z" fill="white"/>
</g>
</mask>
<g mask="url(#mask0_305_82)">
<g id="Group_2">
<path id="Vector_3" d="M56.2814 0H0V43.7944H56.2814V0Z" fill="#05498F"/>
<g id="Clip path group_2">
<mask id="mask1_305_82" style="mask-type:luminance" maskUnits="userSpaceOnUse" x="0" y="0" width="57" height="44">
<g id="SVGID_00000014616686681917239560000013970556488261764542_">
<path id="Vector_4" d="M56.2814 0H0V43.7944H56.2814V0Z" fill="white"/>
</g>
</mask>
<g mask="url(#mask1_305_82)">
<path id="Vector_5" d="M58.1647 -2.14679H-2.16467V45.1425H58.1647V-2.14679Z" fill="#05498F"/>
</g>
</g>
</g>
</g>
</g>
</g>
</svg>
